<?xml version="1.0" encoding="utf-8"?>
<!-- Generator: Adobe Illustrator 26.1.0, SVG Export Plug-In . SVG Version: 6.00 Build 0)  -->
<svg version="1.1" id="Layer_1" xmlns="http://www.w3.org/2000/svg" xmlns:xlink="http://www.w3.org/1999/xlink" x="0px" y="0px"
	 viewBox="0 0 35 35" style="enable-background:new 0 0 35 35;" xml:space="preserve">
<style type="text/css">
	.st0{display:none;fill:url(#SVGID_1_);}
	.st1{display:none;fill:url(#SVGID_00000019638446952718028330000012939912510932619144_);}
	.st2{display:none;fill:url(#SVGID_00000133517488661041332440000003899657766517299378_);}
	.st3{display:none;opacity:0.28;fill:url(#SVGID_00000035500238463178302120000011102064770142724776_);enable-background:new    ;}
	.st4{display:none;opacity:0.44;}
	.st5{display:inline;fill:url(#SVGID_00000142175906401122407000000006333121267387176355_);}
	.st6{display:inline;fill:url(#SVGID_00000081611339258680761360000009114403854884479621_);}
	.st7{display:none;fill:url(#SVGID_00000146461113990719094520000008156029865143101058_);}
	.st8{display:none;fill:url(#SVGID_00000177451512626776759290000017708082775353397894_);}
	.st9{display:none;opacity:0.5;}
	
		.st10{display:inline;opacity:0.78;fill:url(#SVGID_00000061442846148667254230000008374675415828805267_);enable-background:new    ;}
	
		.st11{display:inline;opacity:0.78;fill:url(#SVGID_00000052083959915284467280000016073803300746421386_);enable-background:new    ;}
	.st12{fill:#F0B90C;}
</style>
<linearGradient id="SVGID_1_" gradientUnits="userSpaceOnUse" x1="7.1587" y1="831.7398" x2="15.2968" y2="831.7398" gradientTransform="matrix(1 0 0 1 0 -805.8898)">
	<stop  offset="0" style="stop-color:#B0D1FF"/>
	<stop  offset="1" style="stop-color:#4F93FF"/>
</linearGradient>
<path class="st0" d="M7.9,28.2c-1-1-1-2.7,0-3.8l1.8-1.9l5.5,5.8l-3.5,0.9L7.9,28.2z"/>
<linearGradient id="SVGID_00000029033668788825512390000012042709803097116345_" gradientUnits="userSpaceOnUse" x1="-2.495944e-07" y1="824.4898" x2="8.35" y2="824.4898" gradientTransform="matrix(1 0 0 1 0 -805.8898)">
	<stop  offset="0" style="stop-color:#B0D1FF"/>
	<stop  offset="1" style="stop-color:#4F93FF"/>
</linearGradient>
<path style="display:none;fill:url(#SVGID_00000029033668788825512390000012042709803097116345_);" d="M0.5,20.8
	c-0.6-0.6-0.6-1.7,0-2.3l2.6-2.6l5.3,5.4L0.5,20.8z"/>
<linearGradient id="SVGID_00000075853313877675257670000015455209306224563099_" gradientUnits="userSpaceOnUse" x1="17.9813" y1="836.9859" x2="18.335" y2="800.2005" gradientTransform="matrix(1 0 0 1 0 -805.8898)">
	<stop  offset="0" style="stop-color:#0058D4"/>
	<stop  offset="1" style="stop-color:#00245B"/>
</linearGradient>
<path style="display:none;fill:url(#SVGID_00000075853313877675257670000015455209306224563099_);" d="M34,19.4L20,33.5
	c-1.1,1.1-2.8,1.1-3.8,0L2.3,19.4c-1.1-1.1-1.1-2.8,0-3.9L16.2,1.3c1.1-1.1,2.8-1.1,3.8,0l14,14.2C35,16.6,35,18.3,34,19.4z"/>
<linearGradient id="SVGID_00000139260490919494828000000012356253647378351752_" gradientUnits="userSpaceOnUse" x1="17.8461" y1="813.9323" x2="17.7282" y2="823.7538" gradientTransform="matrix(1 0 0 1 0 -805.8898)">
	<stop  offset="0" style="stop-color:#000000"/>
	<stop  offset="1" style="stop-color:#B0D1FF"/>
</linearGradient>
<path style="display:none;opacity:0.28;fill:url(#SVGID_00000139260490919494828000000012356253647378351752_);enable-background:new    ;" d="
	M33.1,15.6c-2.6,1.3-6.6,1.8-12.3-0.7c-7.2-3.2-14-0.9-18.4,1.6c0.1-0.2,0.2-0.4,0.4-0.5L16.7,1.8c0.4-0.4,0.9-0.6,1.4-0.6
	s1,0.2,1.4,0.6L33.1,15.6z"/>
<g class="st4">
	
		<linearGradient id="SVGID_00000013888335570729469860000005300188453099202459_" gradientUnits="userSpaceOnUse" x1="11.8" y1="831.0399" x2="27.9375" y2="831.0399" gradientTransform="matrix(1 0 0 1 0 -805.8898)">
		<stop  offset="0" style="stop-color:#001334"/>
		<stop  offset="1" style="stop-color:#00245B"/>
	</linearGradient>
	<path style="display:inline;fill:url(#SVGID_00000013888335570729469860000005300188453099202459_);" d="M27.9,18.8l-2,7.7l-1.2-2
		l-3.6,3.7c-0.8,0.8-1.8,1.6-2.8,2.2c-1.3,0.8-2.7,1.1-4.2,1.1L11.8,29c2.7-0.2,5.1-1.3,7-3.2l3.7-3.7l-2.3-1.4L27.9,18.8z"/>
	
		<linearGradient id="SVGID_00000005226985800985282320000004672510936342321557_" gradientUnits="userSpaceOnUse" x1="4.5576" y1="822.9973" x2="23.8576" y2="822.9973" gradientTransform="matrix(1 0 0 1 0 -805.8898)">
		<stop  offset="0" style="stop-color:#001334"/>
		<stop  offset="1" style="stop-color:#00245B"/>
	</linearGradient>
	<path style="display:inline;fill:url(#SVGID_00000005226985800985282320000004672510936342321557_);" d="M23.9,9.7l-2.4,9l-1.4-2.3
		l-4.2,4.3c-0.9,0.9-1.9,1.8-3,2.4c-1.7,1.1-3.6,1.5-5.5,1.4l-2.8-2.8c3.2-0.1,6.3-1.4,8.6-3.8l4.3-4.4l-2.7-1.6L23.9,9.7z"/>
</g>
<linearGradient id="SVGID_00000070822475170658232110000007502485526035329967_" gradientUnits="userSpaceOnUse" x1="7.9253" y1="830.1959" x2="27.2423" y2="830.1959" gradientTransform="matrix(1 0 0 1 0 -805.8898)">
	<stop  offset="0" style="stop-color:#0065FF"/>
	<stop  offset="1" style="stop-color:#00C4F7"/>
</linearGradient>
<path style="display:none;fill:url(#SVGID_00000070822475170658232110000007502485526035329967_);" d="M27.2,18l-2,7.7l-1.2-2
	l-3.6,3.6c-0.8,0.9-1.8,1.6-2.8,2.2c-3.1,1.9-7.2,1.3-9.8-1.3h2.6c2.9,0,5.6-1.1,7.7-3.2l3.7-3.7l-2.3-1.4L27.2,18z"/>
<linearGradient id="SVGID_00000058585823897840590630000009439677592695875470_" gradientUnits="userSpaceOnUse" x1="0.5" y1="822.1232" x2="23.2" y2="822.1232" gradientTransform="matrix(1 0 0 1 0 -805.8898)">
	<stop  offset="0" style="stop-color:#0065FF"/>
	<stop  offset="1" style="stop-color:#00C4F7"/>
</linearGradient>
<path style="display:none;fill:url(#SVGID_00000058585823897840590630000009439677592695875470_);" d="M23.2,8.8l-2.4,9l-1.4-2.3
	l-4.2,4.3c-0.9,0.9-1.9,1.8-3,2.4C8.4,24.6,3.6,24,0.5,20.8h3c3.4,0,6.6-1.4,9-3.8l4.3-4.4L14.1,11L23.2,8.8z"/>
<g class="st9">
	
		<linearGradient id="SVGID_00000062158934641691027460000017029347309431198386_" gradientUnits="userSpaceOnUse" x1="24.7862" y1="824.5999" x2="20.9839" y2="830.8287" gradientTransform="matrix(1 0 0 1 0 -805.8898)">
		<stop  offset="0" style="stop-color:#000000"/>
		<stop  offset="1" style="stop-color:#B0D1FF"/>
	</linearGradient>
	
		<path style="display:inline;opacity:0.78;fill:url(#SVGID_00000062158934641691027460000017029347309431198386_);enable-background:new    ;" d="
		M26.8,18.4l-1.4,5.2c-1-0.8-2.1-1.5-3.4-2.1l0.3-0.3L20.4,20L26.8,18.4z"/>
	
		<linearGradient id="SVGID_00000157290915426666817420000018379761139260084133_" gradientUnits="userSpaceOnUse" x1="17.4251" y1="820.5284" x2="12.935" y2="826.2202" gradientTransform="matrix(1 0 0 1 0 -805.8898)">
		<stop  offset="0" style="stop-color:#000000"/>
		<stop  offset="1" style="stop-color:#B0D1FF"/>
	</linearGradient>
	
		<path style="display:inline;opacity:0.78;fill:url(#SVGID_00000157290915426666817420000018379761139260084133_);enable-background:new    ;" d="
		M22.7,9.3l-2,7.7l-1.2-2l-4,4c-0.9-0.3-1.9-0.5-2.9-0.7c-0.3-0.1-0.6-0.1-0.9-0.1c0.3-0.3,0.6-0.6,1-0.9l4.6-4.7L15,11.2L22.7,9.3z
		"/>
</g>
<g>
	<path class="st12" d="M10,35c7.9-2.6,12.8-9.8,12.8-17.4c0-8-5.2-15.2-12.9-17.5C10.1,0,10.2,0,10.3,0c3.7,0,7.5,0,11.2,0
		c6.4,0.1,11.1,5.7,10,12c-0.2,1.2-0.7,2.4-1.3,3.5c-0.1,0.1-0.2,0.3-0.3,0.5c0.2,0.1,0.3,0.2,0.5,0.3c3.4,2.5,5,5.8,4.3,10
		c-0.6,4.1-3.1,6.9-7.1,8.2C26.8,34.8,25.9,35,25,35c-4.9,0-9.8,0-14.7,0C10.2,35,10.1,35,10,35z"/>
	<path class="st12" d="M0.1,29.6c0-8.1,0-16.1,0-24.1c0,0,0.1-0.1,0.1-0.1c2.1,0,4.3-0.1,6.4,0.2c5.2,0.7,9.4,5.1,10,10.3
		c0.8,6.2-2.9,11.7-8.9,13.4c-0.8,0.2-1.7,0.4-2.6,0.4c-1.6,0.1-3.2,0-4.8,0C0.3,29.6,0.3,29.6,0.1,29.6z"/>
</g>
</svg>
